<svg width="13" height="13" viewBox="0 0 13 13" fill="none" xmlns="http://www.w3.org/2000/svg">
<path d="M6.46875 5.33543V7.77989H9.86309C9.54717 9.33327 8.22471 10.2258 6.46875 10.2258C4.42347 10.1976 2.78022 8.5316 2.78022 6.48612C2.78022 4.44065 4.42347 2.77462 6.46875 2.74648C7.3189 2.74546 8.14288 3.04049 8.79917 3.58089L10.6408 1.73923C8.5283 -0.117976 5.44309 -0.356849 3.06986 1.15304C0.696625 2.66293 -0.39427 5.55871 0.392848 8.25916C1.17997 10.9596 3.65593 12.8157 6.46875 12.814C9.63288 12.814 12.5101 10.5126 12.5101 6.48577C12.5052 6.09805 12.4577 5.71205 12.3685 5.33473L6.46875 5.33543Z" fill="black"/>
</svg>
